# xmcd
#
# Track frame offsets: 
#        150
#        23907
#        44250
#        64892
#        87465
#        111772
#        131137
#        154880
#        173297
#
# Disc length: 2594 seconds
#
# Revision: 1
# Processed by: cddbd v1.5.2PL0 Copyright (c) Steve Scherf et al.
# Submitted via: ExactAudioCopy v1.0b3
#
DISCID=720a2009
DTITLE=麗美 - 言葉のない友情
DYEAR=1989
DGENRE=JPop
TTITLE0=都会のサファリ・パーク
TTITLE1=見送り
TTITLE2=すれちがい
TTITLE3=Angel
TTITLE4=口紅の色が取れて来る
TTITLE5=Hundres&Seven Lives
TTITLE6=JANE
TTITLE7=Chimes
TTITLE8=The Old Lady Next Door
EXTD=
EXTT0=
EXTT1=
EXTT2=
EXTT3=
EXTT4=
EXTT5=
EXTT6=
EXTT7=
EXTT8=
PLAYORDER=
